<?xml version="1.0" standalone="no"?>
<!DOCTYPE svg PUBLIC "-//W3C//DTD SVG 20010904//EN"
 "http://www.w3.org/TR/2001/REC-SVG-20010904/DTD/svg10.dtd">
<svg version="1.0" xmlns="http://www.w3.org/2000/svg"
 width="136.000000pt" height="136.000000pt" viewBox="0 0 136.000000 136.000000"
 preserveAspectRatio="xMidYMid meet">
<metadata>
Created by potrace 1.11, written by Peter Selinger 2001-2013
</metadata>
<g transform="translate(0.000000,136.000000) scale(0.100000,-0.100000)"
fill="#000000" stroke="none">
<path d="M585 1354 c-133 -21 -272 -92 -369 -189 -83 -82 -136 -168 -173 -280
-23 -69 -26 -97 -26 -205 0 -108 3 -136 26 -205 60 -180 178 -320 339 -400
119 -58 213 -79 333 -72 241 14 454 155 560 370 100 204 100 410 0 614 -108
219 -325 360 -565 368 -52 2 -108 1 -125 -1z m139 -188 c45 -19 66 -52 66
-102 0 -51 -19 -100 -73 -182 l-41 -64 -18 24 c-10 12 -35 57 -56 97 -61 122
-49 207 32 230 44 13 53 13 90 -3z m-235 -119 c29 -27 65 -105 80 -175 20 -94
21 -92 -56 -75 -87 19 -167 57 -193 90 -42 54 -16 142 52 173 49 23 82 19 117
-13z m492 8 c66 -35 91 -134 45 -180 -35 -35 -97 -63 -176 -80 -39 -8 -75 -15
-80 -15 -11 0 17 124 42 183 24 56 78 107 114 107 14 0 38 -7 55 -15z m-603
-260 c44 -19 162 -94 162 -104 0 -9 -105 -72 -154 -93 -23 -9 -62 -17 -88 -17
-40 -1 -50 3 -72 30 -34 40 -41 72 -27 119 22 74 94 100 179 65z m723 -5 c63
-34 63 -176 0 -210 -53 -28 -156 2 -254 72 l-48 35 63 41 c101 66 189 88 239
62z m-391 -60 c28 -28 26 -66 -5 -86 -51 -33 -111 16 -84 69 23 42 57 49 89
17z m-130 -138 c0 -25 -42 -166 -59 -200 -40 -79 -103 -102 -169 -62 -35 21
-62 72 -62 114 0 56 84 114 203 140 77 17 87 18 87 8z m370 -51 c68 -32 104
-80 94 -126 -20 -95 -124 -145 -186 -88 -37 33 -75 130 -92 235 l-7 36 68 -15
c37 -8 93 -27 123 -42z m-240 -41 c42 -65 70 -141 70 -189 0 -75 -74 -125
-150 -102 -101 30 -104 132 -7 284 20 31 41 57 46 57 5 0 23 -22 41 -50z"/>
</g>
</svg>
